<?xml version="1.0" standalone="no"?>
<!DOCTYPE svg PUBLIC "-//W3C//DTD SVG 20010904//EN"
 "http://www.w3.org/TR/2001/REC-SVG-20010904/DTD/svg10.dtd">
<svg version="1.0" xmlns="http://www.w3.org/2000/svg"
 width="700.000000pt" height="700.000000pt" viewBox="0 0 700.000000 700.000000"
 preserveAspectRatio="xMidYMid meet">
<metadata>
Created by potrace 1.14, written by Peter Selinger 2001-2017
</metadata>
<g transform="translate(0.000000,700.000000) scale(0.100000,-0.100000)"
fill="#000000" stroke="none">
<path d="M3486 6991 c-3 -5 -52 -35 -108 -67 -57 -32 -115 -65 -129 -74 -14
-8 -80 -46 -145 -83 -65 -38 -135 -78 -154 -89 -19 -11 -141 -81 -270 -156
-402 -232 -796 -459 -1025 -592 -209 -121 -388 -224 -465 -268 -19 -10 -164
-94 -323 -186 -158 -92 -304 -176 -325 -187 -20 -12 -42 -25 -49 -30 -8 -7
-11 -447 -10 -1751 l2 -1741 300 -174 c165 -96 325 -188 355 -205 30 -17 154
-88 275 -158 121 -71 378 -219 570 -329 193 -111 357 -206 365 -211 8 -5 152
-88 320 -185 168 -97 312 -181 320 -186 42 -25 363 -209 366 -209 2 0 33 -18
69 -40 36 -22 70 -40 76 -40 6 0 52 24 103 54 76 45 417 241 529 305 18 10
216 125 440 255 225 130 413 236 418 236 5 0 9 5 9 10 0 6 4 10 9 10 5 0 119
64 253 141 133 78 263 153 288 167 25 14 125 72 223 129 98 56 181 103 184
103 4 0 14 6 22 14 9 7 45 30 81 49 36 19 153 86 260 149 l195 113 2 1743 1
1743 -36 23 c-20 13 -57 34 -82 47 -25 14 -56 32 -70 41 -14 9 -48 29 -77 45
-45 24 -553 318 -1483 856 -151 87 -293 169 -315 182 -22 12 -123 71 -225 130
-102 59 -203 117 -225 129 -22 13 -56 32 -75 43 -424 247 -438 255 -444 244z
m-206 -1221 c154 -51 254 -148 309 -298 54 -147 47 -339 -15 -437 -15 -25
-104 -139 -149 -192 -86 -101 -167 -185 -195 -201 -45 -25 -182 -69 -440 -138
-257 -70 -271 -74 -197 -68 206 19 444 28 450 17 3 -5 -22 -38 -56 -73 -35
-36 -98 -105 -142 -154 -44 -48 -91 -93 -105 -98 -27 -11 -168 -50 -385 -105
-147 -38 -197 -59 -110 -47 28 3 57 7 65 9 50 9 271 26 304 23 l39 -3 -69 -86
c-38 -48 -88 -112 -111 -142 l-42 -55 -213 -52 c-243 -59 -278 -69 -278 -78 0
-4 81 -7 181 -7 99 0 185 -2 189 -5 5 -3 -11 -37 -35 -75 -24 -38 -42 -71 -40
-73 2 -2 56 10 121 27 156 40 270 66 374 85 47 9 96 18 110 21 13 2 42 7 65
10 22 3 65 10 95 15 61 10 114 17 210 25 36 3 74 8 85 10 50 10 280 19 500 19
264 0 417 -8 632 -34 145 -17 166 -20 218 -30 28 -6 64 -12 80 -14 50 -6 283
-55 390 -82 242 -61 490 -141 743 -239 l123 -48 -2 -152 c-4 -311 -54 -560
-151 -765 -12 -25 -45 -81 -74 -125 -145 -220 -333 -341 -614 -395 -74 -15
-131 -18 -260 -15 -91 2 -174 5 -185 8 -11 2 -40 8 -65 12 -70 10 -235 53
-344 87 -108 35 -95 24 -209 181 -103 141 -181 223 -242 252 -85 42 -138 25
-234 -73 -54 -54 -209 -256 -240 -310 -17 -30 -310 -117 -486 -144 -44 -7
-156 -12 -250 -12 -142 1 -186 4 -265 23 -288 70 -495 220 -633 461 -54 94
-124 297 -141 410 -3 19 -8 45 -10 57 -8 37 -18 150 -21 226 -1 40 -5 74 -8
77 -6 5 -58 -69 -362 -520 -76 -113 -144 -212 -152 -220 -13 -13 -14 -13 -9 5
3 11 8 35 11 54 28 165 150 523 248 730 l35 75 -48 95 c-67 132 -142 321 -139
351 0 3 -4 17 -9 31 -14 37 -25 124 -24 191 2 72 30 156 95 283 49 96 202 335
214 335 24 0 75 -106 139 -290 l34 -95 0 70 c2 296 9 533 16 551 5 12 30 46
56 75 25 30 56 65 68 79 28 33 176 194 219 239 l33 35 19 -22 c32 -40 94 -236
114 -358 9 -62 15 -52 16 32 1 43 2 93 4 109 1 17 5 69 9 117 4 47 9 97 11
110 2 12 7 44 9 70 10 82 18 122 27 140 16 30 230 229 374 347 83 69 273 148
409 170 89 15 244 5 316 -19z"/>
<path d="M2379 2946 c-2 -2 -31 -7 -63 -10 -112 -11 -256 -45 -282 -67 -70
-58 114 -303 272 -363 109 -41 280 -50 604 -31 80 4 177 8 217 8 83 0 83 0 84
112 1 52 -4 77 -25 119 -55 112 -160 174 -381 222 -32 7 -420 16 -426 10z"/>
<path d="M4739 2935 c-278 -47 -413 -153 -422 -330 -1 -11 2 -43 6 -71 l7 -52
68 1 c37 0 135 -3 217 -8 432 -23 569 -8 690 75 134 92 245 276 193 317 -25
20 -137 49 -258 69 -79 12 -426 12 -501 -1z"/>
</g>
</svg>
