<?xml version="1.0" encoding="UTF-8" standalone="no"?>
<!-- Generator: Adobe Illustrator 22.0.1, SVG Export Plug-In . SVG Version: 6.00 Build 0)  -->

<svg
   version="1.1"
   id="Layer_1"
   x="0px"
   y="0px"
   viewBox="0 0 735 852"
   xml:space="preserve"
   sodipodi:docname="logo.svg"
   inkscape:version="1.2.1 (9c6d41e, 2022-07-14)"
   inkscape:export-filename="logo.png"
   inkscape:export-xdpi="31.346939"
   inkscape:export-ydpi="31.346939"
   width="735"
   height="852"
   xmlns:inkscape="http://www.inkscape.org/namespaces/inkscape"
   xmlns:sodipodi="http://sodipodi.sourceforge.net/DTD/sodipodi-0.dtd"
   xmlns:xlink="http://www.w3.org/1999/xlink"
   xmlns="http://www.w3.org/2000/svg"
   xmlns:svg="http://www.w3.org/2000/svg"
   xmlns:rdf="http://www.w3.org/1999/02/22-rdf-syntax-ns#"
   xmlns:cc="http://creativecommons.org/ns#"
   xmlns:dc="http://purl.org/dc/elements/1.1/"><defs
   id="defs456"><linearGradient
     inkscape:collect="always"
     id="linearGradient38119"><stop
       style="stop-color:#f0f0f0;stop-opacity:1;"
       offset="0"
       id="stop958" /><stop
       style="stop-color:#c6c6c6;stop-opacity:1;"
       offset="0.5"
       id="stop1277" /><stop
       style="stop-color:#a6a6a6;stop-opacity:1;"
       offset="1"
       id="stop38117" /></linearGradient><linearGradient
     id="linearGradient12324"
     inkscape:swatch="solid"><stop
       style="stop-color:#008080;stop-opacity:1;"
       offset="0"
       id="stop12322" /></linearGradient><linearGradient
     id="linearGradient12318"
     inkscape:swatch="solid"><stop
       style="stop-color:#008080;stop-opacity:1;"
       offset="0"
       id="stop12316" /></linearGradient><linearGradient
     id="wood"
     inkscape:swatch="solid"><stop
       style="stop-color:#614633;stop-opacity:1;"
       offset="0"
       id="stop12310" /></linearGradient><linearGradient
     inkscape:collect="always"
     xlink:href="#linearGradient38119"
     id="linearGradient33147"
     gradientUnits="userSpaceOnUse"
     x1="1085.5492"
     y1="335.02646"
     x2="1149.6268"
     y2="347.33627" /><linearGradient
     inkscape:collect="always"
     xlink:href="#SVGID_1_"
     id="linearGradient33149"
     gradientUnits="userSpaceOnUse"
     gradientTransform="matrix(1,0,0,-1,0,852)"
     x1="366.1355"
     y1="974.39001"
     x2="367.43549"
     y2="510.87" /></defs><sodipodi:namedview
   id="namedview454"
   pagecolor="#ffffff"
   bordercolor="#000000"
   borderopacity="0.25"
   inkscape:showpageshadow="2"
   inkscape:pageopacity="0"
   inkscape:pagecheckerboard="true"
   inkscape:deskcolor="#d1d1d1"
   showgrid="false"
   inkscape:zoom="0.3621308"
   inkscape:cx="639.27178"
   inkscape:cy="274.7626"
   inkscape:window-width="1470"
   inkscape:window-height="891"
   inkscape:window-x="0"
   inkscape:window-y="37"
   inkscape:window-maximized="0"
   inkscape:current-layer="Layer_1"
   showguides="true" />
<style
   type="text/css"
   id="style2">
	.st0{fill:#ED7D15;}
	.st1{opacity:0.25;fill:url(#SVGID_1_);enable-background:new    ;}
	.st2{fill:#AC5D12;}
	.st3{fill:#E6B35A;}
	.st4{fill:#E5B259;}
	.st5{fill:#FFFFFF;}
	.st6{stroke:#000000;stroke-width:10;stroke-miterlimit:10;}
	.st7{fill:none;stroke:#000000;stroke-width:0.75;stroke-miterlimit:10;}
</style>

<title
   id="title6">broom</title>
<linearGradient
   id="SVGID_1_"
   gradientUnits="userSpaceOnUse"
   x1="366.1355"
   y1="974.39001"
   x2="367.43549"
   y2="510.87"
   gradientTransform="matrix(1,0,0,-1,0,852)">
	<stop
   offset="0"
   style="stop-color:#FFFFFF;stop-opacity:0.83"
   id="stop8" />
	<stop
   offset="0.56"
   style="stop-color:#FFFFFF;stop-opacity:0.37"
   id="stop10" />
	<stop
   offset="1"
   style="stop-color:#FFFFFF;stop-opacity:0"
   id="stop12" />
</linearGradient>



























































































































































































































<metadata
   id="metadata12717"><rdf:RDF><cc:Work
       rdf:about=""><dc:title>broom</dc:title></cc:Work></rdf:RDF></metadata><g
   id="g33135"
   inkscape:label="logo rendered"
   style="display:inline"
   transform="translate(0,0.8)"><g
     id="g33107"
     inkscape:label="hex"
     sodipodi:insensitive="true"><path
       class="st0"
       d="M 18.2,627.4 V 224.1 L 69.8,194.3 367.5,22.5 v 0 l 296.7,171.3 52.6,30.3 V 627.4 L 367.5,829 Z"
       id="path33103"
       style="display:inline;fill:#a3a5b6;fill-opacity:1"
       inkscape:label="background" /><path
       class="st2"
       d="M 734.9,637.4 V 213.1 L 705.6,196.2 427.8,35.8 367.5,1 307.2,35.8 29.4,196.2 0.1,213.1 v 424.2 l 29.3,16.9 281.3,162.4 56.9,32.8 56.9,-32.8 281.3,-162.4 z M 29.4,621.5 V 231 l 50,-28.9 288.1,-166.3 v 0 L 654.7,201.6 705.6,231 V 621.5 L 367.5,816.7 Z"
       id="path33105"
       style="display:inline;fill:#23242c;fill-opacity:1"
       inkscape:label="border" /></g><g
     aria-label="a.k.a."
     id="text33111"
     style="font-size:133.333px;font-family:'Big Caslon';-inkscape-font-specification:'Big Caslon';text-align:center;text-anchor:middle;display:inline;fill:#23242c;stroke-opacity:0.630901"
     inkscape:label="a.k.a."><path
       d="m 467.83125,324.47829 h -0.8 q -0.53333,1.99999 -1.99999,3.33332 -1.46666,1.2 -4.53332,1.2 -2.66666,0 -4.79999,-1.86666 -2,-2 -2,-7.99998 0,-4.53332 0,-8.26665 0.13334,-3.86665 0.13334,-7.46664 0,-3.6 0,-7.46665 0.13333,-3.86666 0.13333,-8.66665 0,-2.26666 -0.13333,-4.53332 -0.13334,-2.39999 -0.66667,-3.33332 -1.33333,-2.66666 -4.39999,-4.39999 -3.06666,-1.86666 -6.53331,-1.86666 -1.73333,0 -4.53333,0.79999 -2.66665,0.8 -5.99998,2.13333 -3.19999,1.33333 -6.79998,3.19999 -3.59999,1.86667 -7.06665,3.86666 -1.06666,0.66667 -2.53333,1.46666 -1.33333,0.8 -2.53332,1.86667 -1.2,1.06666 -2,2.39999 -0.8,1.33333 -0.8,2.93333 0,1.99999 1.46667,3.59999 1.59999,1.46666 3.73332,1.46666 2.26666,0 4.13332,-1.46666 2,-1.46667 2,-3.33333 v -5.99998 q 0,-0.8 0.93333,-1.86667 0.93333,-1.19999 2.53332,-2.26666 1.6,-1.19999 3.6,-1.86666 2.13332,-0.8 4.26665,-0.8 3.19999,0 5.19999,0.93334 1.99999,0.79999 3.06666,1.86666 1.19999,1.06666 1.59999,2.13332 0.53333,0.93334 0.53333,1.2 v 13.7333 q -1.33333,0.8 -3.33332,1.86666 -1.86666,0.93333 -4.39999,2.4 -2.53333,1.33333 -5.99998,3.33332 -3.33333,2 -7.73332,4.79999 -4.39999,2.79999 -7.46664,6.26665 -2.93333,3.46666 -2.93333,7.19998 0,3.46666 1.06666,5.86665 1.2,2.4 2.93333,3.99999 1.86666,1.46666 3.99999,2.13333 2.26666,0.53333 4.39999,0.53333 3.59999,0 6.53331,-1.06666 3.06666,-1.2 5.46666,-3.06666 2.53332,-1.86666 4.26665,-3.99999 1.86666,-2.13333 2.93333,-3.86666 l 0.26666,0.13334 q 0,6.66665 3.46666,9.33331 3.59999,2.66665 8.13331,2.66665 2.8,0 5.06666,-0.93333 2.39999,-1.06666 4.13332,-2.93332 1.73333,-2 2.79999,-4.39999 1.06667,-2.39999 1.2,-4.93332 z m -24.79994,-2.66666 q 0,2.26666 -1.59999,3.73332 -2.26666,2.26666 -4.93332,3.06666 -2.66666,0.8 -6.13332,0.8 -3.86666,0 -6.26665,-2.79999 -2.39999,-2.8 -2.39999,-6.26665 0,-3.46666 2.39999,-6.13332 2.53333,-2.79999 5.86665,-5.06666 3.46666,-2.26666 7.06665,-4.13332 3.59999,-1.99999 5.99998,-3.73332 z"
       id="path33229" /><path
       d="m 489.83119,330.34494 q 0,-3.46666 -2.13333,-5.86665 -2.13333,-2.53333 -5.59999,-2.53333 -3.46665,0 -5.73331,2.4 -2.26667,2.26666 -2.26667,5.73331 0,3.46666 2.26667,5.59999 2.26666,1.99999 5.73331,1.99999 3.46666,0 5.59999,-1.86666 2.13333,-1.99999 2.13333,-5.46665 z"
       id="path33231" /><path
       d="m 568.36407,337.54492 v -1.33333 q -2.53332,0 -4.79999,-0.26666 -2.26666,-0.26667 -3.33332,-0.53334 -3.19999,-2.39999 -7.86665,-8.53331 -3.86665,-5.06665 -9.06664,-12.79996 -5.19999,-7.86665 -11.06664,-16.79996 3.59999,-3.33333 7.73332,-7.06665 4.13332,-3.86666 8.39997,-7.46665 2.8,-2.39999 5.99999,-3.73332 3.33332,-1.33333 6.13332,-2 2.93332,-0.79999 5.06665,-0.93333 2.13333,-0.26666 2.53333,-0.26666 v -1.33333 h -32.66659 v 1.33333 q 1.6,0 3.46666,0.26666 1.86666,0.26667 3.46666,0.66667 1.6,0.4 2.66666,1.06666 1.06666,0.53333 1.06666,1.46666 0,0.93334 -2.53332,3.86666 -2.53333,2.79999 -6.39999,6.66665 -3.86665,3.73332 -8.39998,7.86665 -4.53332,3.99999 -8.39997,7.19998 v -63.73317 h -1.06667 l -17.73329,8.13331 v 0.8 q 1.73333,0.93333 3.59999,1.99999 2,0.93333 2.93333,1.6 0.93333,0.66666 1.06666,1.33333 0.13334,0.53333 0.13334,1.6 v 75.33314 q 0,2.53332 -2.53333,3.33332 -2.39999,0.66667 -5.46665,0.93333 v 1.33333 h 26.53326 v -1.33333 q -1.33333,-0.26666 -2.66666,-0.4 -1.33333,-0.13333 -2.39999,-0.4 -1.06666,-0.39999 -1.73333,-1.06666 -0.66666,-0.66666 -0.66666,-1.86666 V 306.345 q 0.53333,-0.26666 0.93333,-0.26666 0.53333,-0.13334 1.19999,-0.13334 1.73333,0 3.86666,2.93333 1.99999,2.66666 4.66665,6.66665 2.8,3.86665 5.19999,7.59998 2.53333,3.73332 4.26666,6.66665 1.86666,2.79999 1.86666,3.59999 0,1.86666 -1.86666,2.26666 -1.73333,0.4 -4.39999,0.53333 v 1.33333 z"
       id="path33233" /><path
       d="m 587.29722,330.34494 q 0,-3.46666 -2.13333,-5.86665 -2.13333,-2.53333 -5.59999,-2.53333 -3.46665,0 -5.73331,2.4 -2.26667,2.26666 -2.26667,5.73331 0,3.46666 2.26667,5.59999 2.26666,1.99999 5.73331,1.99999 3.46666,0 5.59999,-1.86666 2.13333,-1.99999 2.13333,-5.46665 z"
       id="path33235" /><path
       d="m 657.43011,324.47829 h -0.8 q -0.53333,1.99999 -1.99999,3.33332 -1.46666,1.2 -4.53332,1.2 -2.66666,0 -4.79999,-1.86666 -1.99999,-2 -1.99999,-7.99998 0,-4.53332 0,-8.26665 0.13333,-3.86665 0.13333,-7.46664 0,-3.6 0,-7.46665 0.13333,-3.86666 0.13333,-8.66665 0,-2.26666 -0.13333,-4.53332 -0.13333,-2.39999 -0.66667,-3.33332 -1.33333,-2.66666 -4.39999,-4.39999 -3.06665,-1.86666 -6.53331,-1.86666 -1.73333,0 -4.53332,0.79999 -2.66666,0.8 -5.99999,2.13333 -3.19999,1.33333 -6.79998,3.19999 -3.59999,1.86667 -7.06665,3.86666 -1.06666,0.66667 -2.53333,1.46666 -1.33333,0.8 -2.53332,1.86667 -1.2,1.06666 -2,2.39999 -0.8,1.33333 -0.8,2.93333 0,1.99999 1.46667,3.59999 1.59999,1.46666 3.73332,1.46666 2.26666,0 4.13332,-1.46666 2,-1.46667 2,-3.33333 v -5.99998 q 0,-0.8 0.93333,-1.86667 0.93333,-1.19999 2.53333,-2.26666 1.59999,-1.19999 3.59999,-1.86666 2.13332,-0.8 4.26665,-0.8 3.19999,0 5.19999,0.93334 1.99999,0.79999 3.06666,1.86666 1.2,1.06666 1.59999,2.13332 0.53334,0.93334 0.53334,1.2 v 13.7333 q -1.33333,0.8 -3.33333,1.86666 -1.86666,0.93333 -4.39999,2.4 -2.53332,1.33333 -5.99998,3.33332 -3.33333,2 -7.73332,4.79999 -4.39998,2.79999 -7.46664,6.26665 -2.93333,3.46666 -2.93333,7.19998 0,3.46666 1.06666,5.86665 1.2,2.4 2.93333,3.99999 1.86666,1.46666 3.99999,2.13333 2.26666,0.53333 4.39999,0.53333 3.59999,0 6.53332,-1.06666 3.06665,-1.2 5.46665,-3.06666 2.53333,-1.86666 4.26665,-3.99999 1.86667,-2.13333 2.93333,-3.86666 l 0.26667,0.13334 q 0,6.66665 3.46665,9.33331 3.59999,2.66665 8.13332,2.66665 2.79999,0 5.06665,-0.93333 2.39999,-1.06666 4.13332,-2.93332 1.73333,-2 2.8,-4.39999 1.06666,-2.39999 1.19999,-4.93332 z m -24.79993,-2.66666 q 0,2.26666 -1.6,3.73332 -2.26666,2.26666 -4.93332,3.06666 -2.66666,0.8 -6.13332,0.8 -3.86665,0 -6.26665,-2.79999 -2.39999,-2.8 -2.39999,-6.26665 0,-3.46666 2.39999,-6.13332 2.53333,-2.79999 5.86665,-5.06666 3.46666,-2.26666 7.06665,-4.13332 3.59999,-1.99999 5.99999,-3.73332 z"
       id="path33237" /><path
       d="m 679.43005,330.34494 q 0,-3.46666 -2.13333,-5.86665 -2.13333,-2.53333 -5.59999,-2.53333 -3.46666,0 -5.73332,2.4 -2.26666,2.26666 -2.26666,5.73331 0,3.46666 2.26666,5.59999 2.26666,1.99999 5.73332,1.99999 3.46666,0 5.59999,-1.86666 2.13333,-1.99999 2.13333,-5.46665 z"
       id="path33239" /></g><g
     id="g33125"
     transform="translate(-711.70346,199.97552)"
     inkscape:label="mask"
     sodipodi:insensitive="true"><path
       id="path33113"
       style="display:inline;fill:#c6c6c6;fill-opacity:1;stroke:#23242c;stroke-width:16;stroke-linejoin:round;stroke-dasharray:none;stroke-opacity:1"
       d="m 1323.2319,302.65706 c -24.2974,-11.77706 -160.4813,-25.74097 -140.8472,47.83845 34.166,-1.9658 78.217,7.65323 107.1568,-2.34033 22.4999,-7.76972 44.3253,-40.34333 33.6904,-45.49812 z m -419.75814,0 c -10.63487,5.15479 11.19044,37.7284 33.69034,45.49812 28.9398,9.99356 72.9908,0.37453 107.1567,2.34033 C 1063.9549,276.91609 927.7711,290.88 903.47376,302.65706 Z m -57.1749,-39.90427 c 178.23554,-70.72671 356.47114,-74.03364 534.70664,0 1.0061,0.41789 1.9664,0.87698 1.9664,1.96633 5.2506,184.09717 -115.1613,197.50067 -219.2527,157.75088 -48.3859,-70.24214 -54.9601,-65.47506 -100.9496,0.38199 -101.1453,39.75341 -227.53466,23.33482 -218.43707,-158.13287 0,-1.08935 0.95379,-1.56454 1.96633,-1.96633 z"
       inkscape:label="mask background" /><path
       id="path33115"
       style="fill:#e7e7e7;fill-opacity:1;stroke:#1c1c1c;stroke-width:0;stroke-linejoin:round;stroke-dasharray:none;stroke-opacity:1"
       d="m 1113.5332,216.4707 c -12.5566,0.0779 -25.0826,0.48792 -37.5684,1.27149 -37.3355,2.3276 -74.6069,7.86158 -111.12105,16.23437 -14.21944,3.24669 -28.25239,6.92175 -42.25586,10.98633 -20.00653,5.82989 -39.86816,12.47573 -59.40039,19.8457 -2.91055,1.08136 -5.78799,2.21007 -8.71875,3.33594 -0.71253,0.28388 -1.54147,0.60719 -2.29883,0.90625 -0.34489,8.0731 -0.39189,16.29953 -0.11328,24.35742 0.17068,4.91981 0.46526,9.83523 0.88672,14.68946 1.37887,15.79546 4.23207,31.56025 9.36328,46.63867 1.0935,3.20624 2.35688,6.51778 3.61719,9.50781 5.98684,14.24 14.47253,27.5647 25.69922,38.25 6.52512,6.26125 13.90586,11.62767 21.88086,15.89258 0.8364,0.44926 1.91992,1.01809 2.86718,1.48828 6.44327,3.21912 13.21784,5.75568 20.15039,7.69922 0.64838,0.16646 1.5945,0.43735 2.36524,0.6289 2.88361,0.74687 5.87191,1.40144 8.71289,1.92969 7.69667,1.44913 15.51472,2.20081 23.33984,2.4375 1.65323,0.0408 3.52352,0.0715 5.26172,0.0664 4.54642,-0.0113 9.00074,-0.19726 13.55274,-0.53906 1.21056,-0.0957 2.49141,-0.19193 3.70507,-0.3125 4.85568,-0.46004 9.69392,-1.09288 14.50782,-1.87696 9.8499,-1.61834 19.8324,-3.95433 29.4062,-6.77929 6.8379,-2.0171 13.5893,-4.32294 20.2481,-6.86719 9.049,-12.78098 17.8812,-25.79524 28.4375,-37.40625 4.8564,-5.22492 10.305,-10.1453 16.8867,-13.07227 0.077,-0.0333 0.1611,-0.0476 0.2383,-0.0801 18.6897,-54.85381 18.1597,-110.68364 14.0195,-149.17968 -1.2245,-0.002 -2.4474,-0.0567 -3.6699,-0.0527 z m -146.23047,68.73242 c 16.29349,0.13645 32.75457,1.61391 48.34957,6.58008 9.8363,3.18402 19.4057,7.97523 26.7227,15.41602 6.9672,7.05137 11.2872,16.68137 11.7539,26.59766 0.3997,6.50313 -0.4449,13.06908 -2.3047,19.30468 -1.2044,2.83774 -3.8846,5.31141 -7.1054,5.31641 -1.4733,0.0937 -3.168,-0.0442 -4.4981,-0.10938 -4.4328,-0.10293 -8.8681,-0.09 -13.3008,0.0254 -1.9796,0.0614 -4.1621,0.12365 -6.2187,0.22266 -18.5645,0.80794 -37.23166,2.72015 -55.88284,2.07031 -10.90705,-0.43571 -21.95028,-1.71396 -32.20117,-5.6582 -10.16303,-4.08688 -18.80858,-11.23311 -26.02735,-19.35937 -5.31967,-6.03335 -9.9359,-12.84679 -12.59961,-20.48243 -1.50251,-4.4768 -1.93998,-9.62191 0.19141,-13.97461 1.67994,-3.35329 4.91366,-5.71127 8.44531,-6.8164 8.43192,-3.27226 17.38863,-4.85456 26.2793,-6.30469 12.70207,-1.92967 25.55152,-2.81769 38.39648,-2.82813 z"
       inkscape:label="mask left" /><g
       id="g33121"
       inkscape:label="nose"
       transform="translate(-746.01071,17.128597)"
       style="display:inline"><path
         id="path33117"
         style="display:inline;fill:#bbbbbb;fill-opacity:1;stroke:#1c1c1c;stroke-width:0;stroke-linejoin:round;stroke-dasharray:none;stroke-opacity:1"
         inkscape:label="nose right"
         d="m 1119.4902,267.0332 c -0.5399,30.36515 -4.7322,64.69411 -16.3027,98.65821 5.4975,-2.31423 11.8251,-2.80166 17.5078,-0.86524 7.1652,2.29319 13.0783,7.2437 18.2969,12.50195 13.1959,15.43255 23.2627,28.32743 29.8652,38.51954 -14.0043,-23.83652 -24.1601,-129.73764 -49.3672,-148.81446 z m -67.666,86.06836 c -0.1944,0.45816 -0.4349,0.90114 -0.7051,1.32617 0.2664,-0.42906 0.5113,-0.86947 0.7051,-1.32617 z m -0.8125,1.48828 c -0.8693,1.30633 -2.07,2.41233 -3.4707,3.0918 l 0.01,0.0469 c 1.4088,-0.67963 2.5997,-1.8076 3.4629,-3.13868 z m 47.2012,13.73633 c -1.5122,0.95453 -2.9615,2.00632 -4.3574,3.13086 1.3959,-1.12454 2.8452,-2.17633 4.3574,-3.13086 z m -19.7461,19.43555 c -2.4248,3.01504 -4.7716,6.09125 -7.0742,9.20312 2.3025,-3.11164 4.6496,-6.1883 7.0742,-9.20312 z"
         sodipodi:nodetypes="cccccccccccccccccccc"
         transform="translate(746.00681,-17.128607)" /><path
         id="path33119"
         style="display:inline;fill:#f0f0f0;fill-opacity:1;stroke:#1c1c1c;stroke-width:0;stroke-linejoin:round;stroke-dasharray:none;stroke-opacity:1"
         d="m 1119.4902,267.01758 c -26.5369,3.59844 -32.0786,101.54984 -61.8652,149.24414 11.6456,-7.91035 19.3437,-27.30538 28.4336,-37.40625 4.8564,-5.22492 10.305,-10.1453 16.8867,-13.07227 0.077,-0.0333 0.1611,-0.0476 0.2383,-0.0801 11.5755,-33.97369 15.7678,-68.31309 16.3066,-98.68554 z"
         inkscape:label="nose left"
         transform="translate(746.00681,-17.128607)"
         sodipodi:nodetypes="sccccss" /></g><path
       id="path33123"
       style="display:inline;opacity:0.9;fill:url(#linearGradient33147);fill-opacity:1;stroke:#1c1c1c;stroke-width:0;stroke-linejoin:round;stroke-dasharray:none;stroke-opacity:1"
       inkscape:label="nose"
       d="m 1119.4902,267.01758 c -26.5368,3.59843 -32.0825,101.54989 -61.8691,149.24414 11.6456,-7.91041 19.3476,-27.30536 28.4375,-37.40625 4.8564,-5.22492 10.305,-10.1453 16.8867,-13.07227 0.077,-0.0333 0.1611,-0.0476 0.2383,-0.0801 v -0.0117 c 5.4975,-2.31423 11.8251,-2.80166 17.5078,-0.86524 7.1652,2.29319 13.0783,7.24371 18.2969,12.50195 7.7791,7.87753 14.3399,16.83383 20.8652,25.7461 3.0527,4.22024 6.0313,8.49392 9,12.77344 -8.7565,-5.76037 -27.8987,-137.9022 -49.3672,-148.81446 10e-5,-0.005 -10e-5,-0.0105 0,-0.0156 z"
       sodipodi:nodetypes="ccccccccccccc" /></g><g
     id="g33131"
     inkscape:label="quill"
     transform="translate(-991.01634,41.925833)"
     sodipodi:insensitive="true"><path
       style="opacity:1;fill:#ebebeb;fill-opacity:1;stroke:#23242c;stroke-width:16;stroke-linecap:butt;stroke-linejoin:round;stroke-miterlimit:4;stroke-dasharray:none;stroke-opacity:1"
       d="m 1094.8033,429.86143 96.599,-8.71659 c 7.6134,-16.17582 13.8528,-29.03629 25.6067,-45.90735 0.9791,-1.40542 -20.9746,-1.0874 -53.3427,-1.20814 21.636,-5.98982 66.32,-15.81802 67.3386,-17.22217 8.3917,-11.5679 17.3079,-22.93542 26.4219,-33.93333 2.2646,-2.7328 -44.3937,2.30934 -66.8195,6.40789 35.715,-10.43667 78.2204,-19.87894 80.5138,-22.51004 11.5896,-13.29603 23.2349,-25.8767 34.2891,-37.40696 4.2418,-4.42449 -44.645,1.12818 -66.6435,1.9432 25.1495,-5.07847 87.0098,-22.75258 90.7571,-26.48267 19.8802,-19.78866 31.2527,-36.15859 36.6595,-42.28317 16.863,-19.1016 13.4332,-72.44927 -22.3886,-90.36016 -35.8218,-17.910888 -75.8726,1.02475 -89.9856,8.22896 -5.0075,2.55614 -26.4543,20.63384 -53.1745,46.43627 -4.2708,4.12409 -9.8314,71.9735 -8.5507,85.70088 -1.0295,-21.50178 -13.6986,-63.62902 -18.3259,-58.8429 -14.7804,15.28774 -30.0049,31.93928 -44.1877,48.91709 -4.3757,5.23799 -1.7219,55.55414 -2.9679,78.72711 -4.1338,-14.94381 -17.9426,-52.41059 -21.7471,-47.17025 -16.2596,22.39606 -29.1141,44.24634 -35.1572,63.17242 -10.4148,32.61746 25.1052,92.50991 25.1052,92.50991 z"
       id="path33127"
       sodipodi:nodetypes="ccccsscsscssssscsscssc"
       inkscape:label="feathers" /><path
       style="opacity:1;fill:none;fill-opacity:1;stroke:#23242c;stroke-width:16;stroke-dasharray:none;stroke-opacity:1"
       d="m 1342.6438,119.58011 c -54.69,91.9473 -247.3355,216.76884 -284.3355,418.97174"
       id="path33129"
       sodipodi:nodetypes="cc"
       inkscape:label="bone" /></g><path
     class="st1"
     d="m 366.9,340.4 c 128.2,0 238.6,-57 287.8,-138.8 L 367.5,35.8 v 0 L 79.4,202.2 c 49.4,81.5 159.5,138.2 287.5,138.2 z"
     id="path33133"
     inkscape:label="shine"
     style="display:inline;fill:url(#linearGradient33149)"
     sodipodi:insensitive="true" /></g></svg>
